<svg xmlns="http://www.w3.org/2000/svg" width="1200" height="650" viewBox="0 0 1200 650">
<rect width="100%" height="100%" fill="#f8fafc"/>
<text x="60" y="65" font-family="Arial" font-size="30" font-weight="700" fill="#0f172a">JeevaFlux — End-to-End System Flow</text>

<g font-family="Arial" font-size="17">
<g fill="#e0f2fe" stroke="#0284c7" stroke-width="2">
<rect x="70" y="125" width="180" height="75" rx="15"/><rect x="300" y="125" width="180" height="75" rx="15"/>
<rect x="530" y="125" width="180" height="75" rx="15"/><rect x="760" y="125" width="180" height="75" rx="15"/>
<rect x="990" y="125" width="150" height="75" rx="15"/>
</g>
<text x="160" y="157" text-anchor="middle" font-weight="700">1. SENSING</text><text x="160" y="181" text-anchor="middle">Physiology + Environment</text>
<text x="390" y="157" text-anchor="middle" font-weight="700">2. QUALITY</text><text x="390" y="181" text-anchor="middle">Clean / Validate</text>
<text x="620" y="157" text-anchor="middle" font-weight="700">3. FUSION</text><text x="620" y="181" text-anchor="middle">Features + Context</text>
<text x="850" y="157" text-anchor="middle" font-weight="700">4. EDGE AI</text><text x="850" y="181" text-anchor="middle">Risk Inference</text>
<text x="1065" y="157" text-anchor="middle" font-weight="700">5. RISK</text><text x="1065" y="181" text-anchor="middle">State</text>
<g stroke="#334155" stroke-width="4"><path d="M250 162 H300 M480 162 H530 M710 162 H760 M940 162 H990"/></g>
<rect x="400" y="320" width="400" height="100" rx="18" fill="#fff7ed" stroke="#ea580c" stroke-width="2"/>
<text x="600" y="360" text-anchor="middle" font-size="20" font-weight="700">ALERT ENGINE</text><text x="600" y="390" text-anchor="middle">Normal • Caution • High Risk • Emergency Candidate</text>
<path d="M1065 200 V320 H800" stroke="#334155" stroke-width="4" fill="none"/>
<rect x="150" y="500" width="250" height="80" rx="15" fill="#ecfdf5" stroke="#16a34a" stroke-width="2"/>
<text x="275" y="535" text-anchor="middle" font-weight="700">LOCAL STORAGE</text><text x="275" y="558" text-anchor="middle">Works offline</text>
<rect x="475" y="500" width="250" height="80" rx="15" fill="#f1f5f9" stroke="#475569" stroke-width="2"/>
<text x="600" y="535" text-anchor="middle" font-weight="700">MOBILE COMPANION</text><text x="600" y="558" text-anchor="middle">Alert + guidance</text>
<rect x="800" y="500" width="250" height="80" rx="15" fill="#fef3c7" stroke="#ca8a04" stroke-width="2"/>
<text x="925" y="535" text-anchor="middle" font-weight="700">SECURE SYNC</text><text x="925" y="558" text-anchor="middle">When connectivity returns</text>
<path d="M500 420 V500 H400 M600 420 V500 M700 420 V500 H800" stroke="#64748b" stroke-width="3" fill="none"/>
</g>

</svg>